<svg xmlns="http://www.w3.org/2000/svg" height="24" viewBox="0 96 960 960" width="24"><path d="M479.419 822.614q21.273 0 36.081-14.688 14.807-14.688 14.807-35.961 0-21.273-14.688-36.08-14.689-14.808-35.961-14.808-21.273 0-36.08 14.689-14.808 14.688-14.808 35.961 0 21.272 14.688 36.08 14.689 14.807 35.961 14.807Zm-40.188-157.23h80.307q.769-34.186 7.654-54.516 6.884-20.329 43.269-55.483 26.384-24.385 41.423-49.15 15.038-24.765 15.038-58.595 0-57.408-42.462-88.447-42.463-31.038-100.46-31.038-59.076 0-96.384 30.731-37.307 30.73-51.307 74.96l71.383 28.615q4.308-18.923 21-40.307 16.693-21.385 54.539-21.385 32.462 0 48.923 17.924 16.462 17.923 16.462 38.231 0 20.384-12.616 37.307-12.615 16.923-30.615 32.693-45.384 40.538-55.769 61.692-10.385 21.154-10.385 76.768Zm40.836 322.615q-85.476 0-160.684-32.44-75.209-32.44-130.842-88.05-55.634-55.611-88.087-130.789-32.453-75.177-32.453-160.653 0-85.732 32.499-161.166 32.499-75.433 88.21-131.234 55.712-55.8 130.788-87.733 75.075-31.933 160.435-31.933 85.722 0 161.148 31.92 75.425 31.92 131.238 87.71 55.814 55.791 87.747 131.212 31.933 75.421 31.933 161.173 0 85.753-31.92 160.621-31.92 74.869-87.697 130.603-55.778 55.735-131.18 88.247-75.403 32.512-161.135 32.512Z"/></svg>