<svg xmlns="http://www.w3.org/2000/svg" height="40" viewBox="0 96 960 960" width="40"><path d="M295.948 917.333q-31.91 0-53.852-21.942-21.942-21.942-21.942-53.852V324.102H180v-51.179h174.769v-33.025h251.795v33.025h174.769v51.179h-40.154v517.437q0 31.302-22.246 53.548-22.246 22.246-53.548 22.246H295.948ZM690 324.102H271.333v517.437q0 10.769 7.18 17.692 7.179 6.923 17.435 6.923h369.437q9.231 0 16.923-7.692Q690 850.77 690 841.539V324.102ZM380.744 783.205h51.179V405.718h-51.179v377.487Zm149.333 0h51.179V405.718h-51.179v377.487ZM271.333 324.102v542.052-542.052Z"/></svg>