<svg xmlns="http://www.w3.org/2000/svg" height="40" viewBox="0 96 960 960" width="40"><path d="M482.441 811.896q17.328 0 29.443-12.171 12.115-12.171 12.115-29.5 0-17.071-12.043-29.315-12.043-12.243-29.371-12.243t-29.571 12.171q-12.244 12.171-12.244 29.243 0 17.328 12.171 29.572 12.171 12.243 29.5 12.243Zm-35.825-148.768h65.127q.513-29.252 7.32-49.972 6.808-20.72 40.782-51.309 28.692-25.052 42.449-49.561 13.756-24.508 13.756-55.965 0-54.418-37.283-85.599-37.283-31.182-93.377-31.182-52.928 0-89.517 26.756-36.59 26.756-52.077 68.73L402.154 458q7.692-23.539 26.949-41.615 19.256-18.077 53.717-18.077 33.949 0 53.18 18.667 19.231 18.666 19.231 44.359 0 21.205-12.835 39.205t-33.934 36.487q-36.615 32.179-49.23 56.436-12.616 24.257-12.616 69.666Zm33.145 314.204q-82.76 0-155.84-31.773t-127.38-86.051q-54.3-54.277-86.086-127.414-31.787-73.136-31.787-156.027 0-83.316 31.832-156.624 31.832-73.308 86.334-127.845 54.503-54.537 127.364-85.733 72.862-31.197 155.44-31.197 83.351 0 156.86 31.183 73.509 31.183 127.905 85.711 54.396 54.527 85.662 127.92 31.267 73.393 31.267 156.84 0 83.037-31.183 155.669t-85.697 127.141q-54.514 54.509-127.889 86.354-73.375 31.846-156.802 31.846Z"/></svg>